<svg xmlns="http://www.w3.org/2000/svg" width="1000" height="1000" viewBox="0 0 1000 1000"><rect width="1000" height="1000" fill="white"/><text x="40" y="32" font-family="sans-serif" font-size="22">ROOT-T04 / R01 closure UV reference</text><polygon points="827.605,495.915 748.285,678.925 830.368,497.417" fill="#d0debf" stroke="#324536" stroke-width="1"/><polygon points="748.285,678.925 851.009,689.740 830.368,497.417" fill="#d0debf" stroke="#324536" stroke-width="1"/><polygon points="851.009,689.740 859.328,501.289 830.368,497.417" fill="#d0debf" stroke="#324536" stroke-width="1"/><polygon points="859.328,501.289 852.607,490.664 830.368,497.417" fill="#d0debf" stroke="#324536" stroke-width="1"/><polygon points="859.328,501.289 856.897,496.360 852.607,490.664" fill="#d0debf" stroke="#324536" stroke-width="1"/><polygon points="851.009,689.740 912.954,456.240 859.328,501.289" fill="#d0debf" stroke="#324536" stroke-width="1"/><polygon points="912.954,456.240 865.555,492.818 859.328,501.289" fill="#d0debf" stroke="#324536" stroke-width="1"/><polygon points="912.954,456.240 882.996,471.664 865.555,492.818" fill="#d0debf" stroke="#324536" stroke-width="1"/><polygon points="912.954,456.240 903.435,448.040 882.996,471.664" fill="#d0debf" stroke="#324536" stroke-width="1"/><polygon points="912.954,456.240 914.000,435.911 903.435,448.040" fill="#d0debf" stroke="#324536" stroke-width="1"/><polygon points="827.605,495.915 819.187,471.606 748.285,678.925" fill="#d0debf" stroke="#324536" stroke-width="1"/><polygon points="819.187,471.606 816.432,461.675 748.285,678.925" fill="#d0debf" stroke="#324536" stroke-width="1"/><polygon points="816.432,461.675 809.953,442.199 748.285,678.925" fill="#d0debf" stroke="#324536" stroke-width="1"/><polygon points="809.953,442.199 777.714,384.195 748.285,678.925" fill="#d0debf" stroke="#324536" stroke-width="1"/><polygon points="777.714,384.195 697.002,305.468 748.285,678.925" fill="#d0debf" stroke="#324536" stroke-width="1"/><polygon points="697.002,305.468 601.530,265.920 748.285,678.925" fill="#d0debf" stroke="#324536" stroke-width="1"/><polygon points="601.530,265.920 567.492,256.487 748.285,678.925" fill="#d0debf" stroke="#324536" stroke-width="1"/><polygon points="567.492,256.487 279.400,343.800 748.285,678.925" fill="#d0debf" stroke="#324536" stroke-width="1"/><polygon points="279.400,343.800 252.489,353.467 748.285,678.925" fill="#d0debf" stroke="#324536" stroke-width="1"/><polygon points="252.489,353.467 197.606,377.622 748.285,678.925" fill="#d0debf" stroke="#324536" stroke-width="1"/><polygon points="197.606,377.622 91.776,408.272 748.285,678.925" fill="#d0debf" stroke="#324536" stroke-width="1"/><polygon points="91.776,408.272 691.838,712.272 748.285,678.925" fill="#d0debf" stroke="#324536" stroke-width="1"/><polygon points="691.838,712.272 663.373,737.055 748.285,678.925" fill="#d0debf" stroke="#324536" stroke-width="1"/><polygon points="691.838,712.272 665.878,712.662 663.373,737.055" fill="#d0debf" stroke="#324536" stroke-width="1"/><polygon points="665.878,712.662 659.374,713.470 663.373,737.055" fill="#d0debf" stroke="#324536" stroke-width="1"/><polygon points="659.374,713.470 648.093,714.979 663.373,737.055" fill="#d0debf" stroke="#324536" stroke-width="1"/><polygon points="648.093,714.979 642.325,715.769 663.373,737.055" fill="#d0debf" stroke="#324536" stroke-width="1"/><polygon points="642.325,715.769 610.322,720.024 663.373,737.055" fill="#d0debf" stroke="#324536" stroke-width="1"/><polygon points="610.322,720.024 579.674,798.330 663.373,737.055" fill="#d0debf" stroke="#324536" stroke-width="1"/><polygon points="610.322,720.024 597.918,723.243 579.674,798.330" fill="#d0debf" stroke="#324536" stroke-width="1"/><polygon points="597.918,723.243 558.387,734.038 579.674,798.330" fill="#d0debf" stroke="#324536" stroke-width="1"/><polygon points="558.387,734.038 541.517,741.368 579.674,798.330" fill="#d0debf" stroke="#324536" stroke-width="1"/><polygon points="541.517,741.368 528.188,748.423 579.674,798.330" fill="#d0debf" stroke="#324536" stroke-width="1"/><polygon points="528.188,748.423 513.183,755.977 579.674,798.330" fill="#d0debf" stroke="#324536" stroke-width="1"/><polygon points="513.183,755.977 499.572,766.666 579.674,798.330" fill="#d0debf" stroke="#324536" stroke-width="1"/><polygon points="499.572,766.666 491.146,866.668 579.674,798.330" fill="#d0debf" stroke="#324536" stroke-width="1"/><polygon points="499.572,766.666 476.712,784.798 491.146,866.668" fill="#d0debf" stroke="#324536" stroke-width="1"/><polygon points="476.712,784.798 466.201,799.192 491.146,866.668" fill="#d0debf" stroke="#324536" stroke-width="1"/><polygon points="466.201,799.192 454.924,814.073 491.146,866.668" fill="#d0debf" stroke="#324536" stroke-width="1"/><polygon points="454.924,814.073 446.759,831.261 491.146,866.668" fill="#d0debf" stroke="#324536" stroke-width="1"/><polygon points="446.759,831.261 444.567,837.948 491.146,866.668" fill="#d0debf" stroke="#324536" stroke-width="1"/><polygon points="444.567,837.948 435.290,862.168 491.146,866.668" fill="#d0debf" stroke="#324536" stroke-width="1"/><polygon points="435.290,862.168 433.976,878.782 491.146,866.668" fill="#d0debf" stroke="#324536" stroke-width="1"/><polygon points="433.976,878.782 430.555,901.426 491.146,866.668" fill="#d0debf" stroke="#324536" stroke-width="1"/><polygon points="430.555,901.426 431.622,914.000 491.146,866.668" fill="#d0debf" stroke="#324536" stroke-width="1"/><polygon points="454.924,814.073 450.263,820.545 446.759,831.261" fill="#d0debf" stroke="#324536" stroke-width="1"/><polygon points="541.517,741.368 541.377,741.380 528.188,748.423" fill="#d0debf" stroke="#324536" stroke-width="1"/><polygon points="91.776,408.272 631.769,708.271 691.838,712.272" fill="#d0debf" stroke="#324536" stroke-width="1"/><polygon points="91.776,408.272 386.043,643.276 631.769,708.271" fill="#d0debf" stroke="#324536" stroke-width="1"/><polygon points="386.043,643.276 503.177,692.950 631.769,708.271" fill="#d0debf" stroke="#324536" stroke-width="1"/><polygon points="503.177,692.950 513.398,697.561 631.769,708.271" fill="#d0debf" stroke="#324536" stroke-width="1"/><polygon points="513.398,697.561 524.617,702.621 631.769,708.271" fill="#d0debf" stroke="#324536" stroke-width="1"/><polygon points="91.776,408.272 345.510,626.185 386.043,643.276" fill="#d0debf" stroke="#324536" stroke-width="1"/><polygon points="345.510,626.185 374.295,639.794 386.043,643.276" fill="#d0debf" stroke="#324536" stroke-width="1"/><polygon points="91.776,408.272 314.913,611.825 345.510,626.185" fill="#d0debf" stroke="#324536" stroke-width="1"/><polygon points="91.776,408.272 293.459,602.224 314.913,611.825" fill="#d0debf" stroke="#324536" stroke-width="1"/><polygon points="91.776,408.272 236.780,576.934 293.459,602.224" fill="#d0debf" stroke="#324536" stroke-width="1"/><polygon points="91.776,408.272 225.957,573.830 236.780,576.934" fill="#d0debf" stroke="#324536" stroke-width="1"/><polygon points="91.776,408.272 221.904,572.644 225.957,573.830" fill="#d0debf" stroke="#324536" stroke-width="1"/><polygon points="91.776,408.272 98.504,468.583 221.904,572.644" fill="#d0debf" stroke="#324536" stroke-width="1"/><polygon points="98.504,468.583 99.966,474.180 221.904,572.644" fill="#d0debf" stroke="#324536" stroke-width="1"/><polygon points="99.966,474.180 102.344,520.631 221.904,572.644" fill="#d0debf" stroke="#324536" stroke-width="1"/><polygon points="102.344,520.631 111.143,542.949 221.904,572.644" fill="#d0debf" stroke="#324536" stroke-width="1"/><polygon points="102.344,520.631 101.815,540.251 111.143,542.949" fill="#d0debf" stroke="#324536" stroke-width="1"/><polygon points="99.966,474.180 94.257,503.599 102.344,520.631" fill="#d0debf" stroke="#324536" stroke-width="1"/><polygon points="91.776,408.272 89.612,430.317 98.504,468.583" fill="#d0debf" stroke="#324536" stroke-width="1"/><polygon points="89.612,430.317 86.000,435.911 98.504,468.583" fill="#d0debf" stroke="#324536" stroke-width="1"/><polygon points="197.606,377.622 183.858,378.791 91.776,408.272" fill="#d0debf" stroke="#324536" stroke-width="1"/><polygon points="183.858,378.791 116.153,386.789 91.776,408.272" fill="#d0debf" stroke="#324536" stroke-width="1"/><polygon points="116.153,386.789 113.323,388.221 91.776,408.272" fill="#d0debf" stroke="#324536" stroke-width="1"/><polygon points="113.323,388.221 98.750,396.424 91.776,408.272" fill="#d0debf" stroke="#324536" stroke-width="1"/><polygon points="98.750,396.424 96.323,397.643 91.776,408.272" fill="#d0debf" stroke="#324536" stroke-width="1"/><polygon points="96.323,397.643 93.121,400.439 91.776,408.272" fill="#d0debf" stroke="#324536" stroke-width="1"/><polygon points="252.489,353.467 225.107,362.924 197.606,377.622" fill="#d0debf" stroke="#324536" stroke-width="1"/><polygon points="567.492,256.487 503.753,242.036 279.400,343.800" fill="#d0debf" stroke="#324536" stroke-width="1"/><polygon points="503.753,242.036 478.507,237.145 279.400,343.800" fill="#d0debf" stroke="#324536" stroke-width="1"/><polygon points="478.507,237.145 434.264,228.071 279.400,343.800" fill="#d0debf" stroke="#324536" stroke-width="1"/><polygon points="434.264,228.071 279.614,342.803 279.400,343.800" fill="#d0debf" stroke="#324536" stroke-width="1"/><polygon points="279.614,342.803 279.270,343.701 279.400,343.800" fill="#d0debf" stroke="#324536" stroke-width="1"/><polygon points="279.614,342.803 279.118,343.589 279.270,343.701" fill="#d0debf" stroke="#324536" stroke-width="1"/><polygon points="434.264,228.071 411.965,223.668 279.614,342.803" fill="#d0debf" stroke="#324536" stroke-width="1"/><polygon points="411.965,223.668 278.208,299.615 279.614,342.803" fill="#d0debf" stroke="#324536" stroke-width="1"/><polygon points="278.208,299.615 274.187,318.690 279.614,342.803" fill="#d0debf" stroke="#324536" stroke-width="1"/><polygon points="411.965,223.668 301.279,242.714 278.208,299.615" fill="#d0debf" stroke="#324536" stroke-width="1"/><polygon points="301.279,242.714 295.997,248.567 278.208,299.615" fill="#d0debf" stroke="#324536" stroke-width="1"/><polygon points="295.997,248.567 285.300,260.122 278.208,299.615" fill="#d0debf" stroke="#324536" stroke-width="1"/><polygon points="411.965,223.668 323.099,215.525 301.279,242.714" fill="#d0debf" stroke="#324536" stroke-width="1"/><polygon points="323.099,215.525 314.429,222.472 301.279,242.714" fill="#d0debf" stroke="#324536" stroke-width="1"/><polygon points="323.099,215.525 319.332,215.230 314.429,222.472" fill="#d0debf" stroke="#324536" stroke-width="1"/><polygon points="697.002,305.468 646.526,278.050 601.530,265.920" fill="#d0debf" stroke="#324536" stroke-width="1"/><polygon points="777.714,384.195 703.145,308.681 697.002,305.468" fill="#d0debf" stroke="#324536" stroke-width="1"/><polygon points="777.714,384.195 719.582,317.267 703.145,308.681" fill="#d0debf" stroke="#324536" stroke-width="1"/><polygon points="777.714,384.195 752.441,339.323 719.582,317.267" fill="#d0debf" stroke="#324536" stroke-width="1"/><polygon points="752.441,339.323 746.882,331.415 719.582,317.267" fill="#d0debf" stroke="#324536" stroke-width="1"/><polygon points="809.953,442.199 806.552,432.068 777.714,384.195" fill="#d0debf" stroke="#324536" stroke-width="1"/><text x="40" y="980" font-family="sans-serif" font-size="16">Reference only. No seam allowance or real-world cutting scale.</text></svg>